<!-- Generator: Adobe Illustrator 18.1.1, SVG Export Plug-In  -->
<svg version="1.1" xmlns="http://www.w3.org/2000/svg" xmlns:xlink="http://www.w3.org/1999/xlink" xmlns:a="http://ns.adobe.com/AdobeSVGViewerExtensions/3.0/" x="0px" y="0px" width="341.142px" height="499.545px" viewBox="0 0 341.142 499.545" enable-background="new 0 0 341.142 499.545" xml:space="preserve">
<defs>
</defs>
<rect x="0" y="0" width="341.142" height="499.545"/>
<g>
	<path fill="#FFFFFF" d="M52.92,341.346l-3.047,7.678H37.682l16.997-44.19H67.22l16.646,44.19H71.615l-2.871-7.678H52.92z    M60.95,318.489h-0.117l-4.749,14.066h9.553L60.95,318.489z"/>
	<path fill="#FFFFFF" d="M103.035,331.675l10.725-26.842h12.484l-18.871,44.19h-8.909l-18.578-44.19H92.37L103.035,331.675z"/>
	<path fill="#FFFFFF" d="M138.619,341.346l-3.047,7.678H123.38l16.997-44.19h12.541l16.644,44.19h-12.249l-2.871-7.678H138.619z    M146.648,318.489h-0.117l-4.749,14.066h9.553L146.648,318.489z"/>
	<path fill="#FFFFFF" d="M176.653,304.834h11.488l21.039,27.018h0.119v-27.018h11.486v44.19h-11.486l-21.041-27.076h-0.117v27.076   h-11.488V304.834z"/>
	<path fill="#FFFFFF" d="M263.391,319.661c-2.346-3.164-6.154-4.864-10.081-4.864c-7.033,0-11.78,5.392-11.78,12.25   c0,6.974,4.806,12.014,11.956,12.014c3.751,0,7.502-1.817,9.905-4.689v13.772c-3.81,1.173-6.565,2.051-10.14,2.051   c-6.154,0-12.013-2.344-16.586-6.505c-4.863-4.396-7.091-10.14-7.091-16.703c0-6.037,2.287-11.839,6.506-16.176   c4.336-4.453,10.608-7.15,16.819-7.15c3.694,0,7.093,0.821,10.492,2.227V319.661z"/>
	<path fill="#FFFFFF" d="M285.485,314.562v7.385h12.952v9.728h-12.952v7.619h13.656v9.729h-25.143v-44.19h25.143v9.729H285.485z"/>
</g>
<g>
	<path fill="#FFFFFF" d="M69.173,377.012c-0.084,4.609-0.419,8.547-3.225,12.485c-3.1,4.315-7.751,6.2-13.03,6.2   c-9.927,0-16.84-6.745-16.84-16.673c0-10.265,6.954-17.01,17.134-17.01c6.493,0,11.52,2.933,14.243,8.84l-7.792,3.267   c-1.131-3.016-3.518-5.027-6.829-5.027c-5.403,0-8.211,5.153-8.211,9.971c0,4.901,2.933,9.886,8.338,9.886   c3.561,0,6.283-1.843,6.618-5.488h-6.702v-6.452H69.173z"/>
	<path fill="#FFFFFF" d="M111.228,394.649h-10.222L93.255,382.5h-0.084v12.149H84.96v-31.588h12.275   c6.242,0,10.976,2.974,10.976,9.719c0,4.357-2.43,8.128-6.913,8.924L111.228,394.649z M93.171,377.221h0.796   c2.681,0,5.698-0.503,5.698-3.938c0-3.435-3.017-3.938-5.698-3.938h-0.796V377.221z"/>
	<path fill="#FFFFFF" d="M133.508,389.161l-2.178,5.488h-8.714l12.15-31.588h8.964l11.899,31.588h-8.755l-2.053-5.488H133.508z    M138.116,361.134l-3.393-2.472l5.906-7.206l4.651,3.352L138.116,361.134z M139.247,372.822h-0.084l-3.393,10.055h6.829   L139.247,372.822z"/>
	<path fill="#FFFFFF" d="M178.412,370.015v5.279h9.007v6.955h-9.007v12.401h-8.211v-31.588h18.141v6.954H178.412z"/>
	<path fill="#FFFFFF" d="M213.137,394.649h-8.211v-31.588h8.211V394.649z"/>
	<path fill="#FFFFFF" d="M253.097,373.661c-1.675-2.263-4.399-3.478-7.205-3.478c-5.027,0-8.422,3.854-8.422,8.756   c0,4.985,3.436,8.588,8.547,8.588c2.681,0,5.362-1.299,7.08-3.351v9.844c-2.722,0.839-4.692,1.466-7.248,1.466   c-4.399,0-8.588-1.675-11.856-4.65c-3.477-3.142-5.068-7.248-5.068-11.94c0-4.315,1.632-8.463,4.649-11.563   c3.1-3.183,7.583-5.111,12.024-5.111c2.64,0,5.07,0.587,7.5,1.592V373.661z"/>
	<path fill="#FFFFFF" d="M303.533,378.268c0,10.223-7.332,17.428-17.47,17.428c-10.14,0-17.47-7.205-17.47-17.428   c0-9.552,8.377-16.255,17.47-16.255C295.154,362.013,303.533,368.716,303.533,378.268z M277.138,378.31   c0,5.446,4.023,9.426,8.925,9.426c4.9,0,8.923-3.98,8.923-9.426c0-4.357-4.023-8.337-8.923-8.337   C281.161,369.973,277.138,373.953,277.138,378.31z"/>
</g>
<g>
	<line fill="#FFFFFF" x1="30.884" y1="413.435" x2="303.819" y2="413.435"/>
	<rect x="30.885" y="411.242" fill="#FFFFFF" width="272.935" height="4.385"/>
</g>
<g>
	<path fill="#FEC800" d="M151.597,190.679c0-34.893,21.218-64.962,51.507-77.976l-32.222-74.716L64.242,280.892h211.392   l-5.957-13.814c-10.65,4.939-22.368,7.594-34.09,7.594C189.696,274.672,151.597,236.57,151.597,190.679z"/>
	<g>
		<g>
			<path fill="#646A6E" d="M312.868,189.813h-76.511l7.281,16.884l19.218,44.564l6.822,15.816     c10.007-4.639,19.074-11.294,26.309-19.683C310.921,230.078,313.304,211.893,312.868,189.813z"/>
		</g>
		<g>
			<path fill="none" stroke="#72787A" stroke-width="0.6132" d="M312.868,189.813h-76.511l7.281,16.884l19.218,44.564l6.822,15.816     c10.007-4.639,19.074-11.294,26.309-19.683C310.921,230.078,313.304,211.893,312.868,189.813z"/>
		</g>
	</g>
</g>
<g>
	<path fill="#FFFFFF" d="M30.778,460.037v-29.326h6.028c1.245,0,9.957-0.778,9.957,8.673c0,5.484-3.539,8.635-8.906,8.635   l-1.284-0.078v12.097H30.778z M36.573,443.234c2.801,0.117,4.396-0.934,4.396-3.928c0-2.101-0.817-3.812-3.307-3.812h-1.089   V443.234z"/>
	<path fill="#FFFFFF" d="M66.95,430.711v18.98c0,2.217-0.272,5.562,2.878,5.562c2.84,0,2.84-2.139,2.879-4.317v-20.225h5.795v21.392   c0,3.111-0.351,8.401-8.713,8.401c-5.406,0-8.634-2.528-8.634-8.013v-21.78H66.95z"/>
	<path fill="#FFFFFF" d="M94.061,460.037v-29.326h5.679c2.256,0,4.2,0.077,6.067,1.595c1.944,1.556,2.995,4.161,2.995,6.611   c0,2.606-0.973,4.59-3.15,6.068c2.411,1.166,3.617,4.278,3.617,6.806c0,5.796-4.278,8.246-9.568,8.246H94.061z M99.856,435.572   v7.156c2.179,0,3.462-1.478,3.462-3.694C103.318,436.894,102.073,435.456,99.856,435.572z M99.856,447.241v7.934   c2.334,0.117,3.695-1.594,3.695-4.045C103.551,448.836,102.151,447.163,99.856,447.241z"/>
	<path fill="#FFFFFF" d="M130.076,430.711v23.881h6.067v5.445h-11.862v-29.326H130.076z"/>
	<path fill="#FFFFFF" d="M156.175,430.711v29.326h-5.795v-29.326H156.175z"/>
	<path fill="#FFFFFF" d="M186.513,436.233c-0.738-0.194-1.438-0.311-2.178-0.311c-5.096,0-7.312,4.628-7.312,9.14   c0,4.356,2.217,9.724,7.273,9.724c0.739,0,1.479-0.194,2.217-0.428v5.484c-0.855,0.35-1.75,0.506-2.684,0.506   c-8.362,0-12.99-7.546-12.99-15.247c0-7.273,4.822-14.741,12.718-14.741c1.012,0,1.984,0.194,2.956,0.545V436.233z"/>
	<path fill="#FFFFFF" d="M206.856,430.711v29.326h-5.795v-29.326H206.856z"/>
	<path fill="#FFFFFF" d="M222.57,460.037v-29.326h4.395c1.012,0,13.146-1.479,13.146,14.896c0,8.362-3.228,14.43-12.368,14.43   H222.57z M234.316,445.568c0-3.734-1.167-9.646-5.951-9.646v18.902C233.033,455.059,234.316,449.225,234.316,445.568z"/>
	<path fill="#FFFFFF" d="M265.939,430.711l7.039,29.326h-6.184l-1.089-4.939h-5.873l-1.051,4.939h-5.756l6.807-29.326H265.939z    M263.371,442.69l-0.661-4.435h-0.078l-0.622,4.435l-1.245,7.817h4.084L263.371,442.69z"/>
	<path fill="#FFFFFF" d="M286.904,460.037v-29.326h4.395c1.012,0,13.146-1.479,13.146,14.896c0,8.362-3.228,14.43-12.368,14.43   H286.904z M298.65,445.568c0-3.734-1.167-9.646-5.951-9.646v18.902C297.366,455.059,298.65,449.225,298.65,445.568z"/>
</g>
</svg>