<?xml version="1.0" encoding="UTF-8" standalone="no"?>
<!DOCTYPE svg PUBLIC "-//W3C//DTD SVG 1.1//EN" "http://www.w3.org/Graphics/SVG/1.1/DTD/svg11.dtd">
<svg width="100%" height="100%" viewBox="0 0 142 142" version="1.1" xmlns="http://www.w3.org/2000/svg" xmlns:xlink="http://www.w3.org/1999/xlink" xml:space="preserve" xmlns:serif="http://www.serif.com/" style="fill-rule:evenodd;clip-rule:evenodd;stroke-linejoin:round;stroke-miterlimit:2;">
    <g transform="matrix(1,0,0,1,-1062.86,-261.976)">
        <g transform="matrix(1,0,0,1,1009.99,-163.783)">
            <g transform="matrix(1,0,0,1,52.8183,425.709)">
                <circle cx="70.9" cy="70.9" r="66.9" style="fill:rgb(183,0,5);"/>
            </g>
            <g transform="matrix(1,0,0,1,52.8683,425.759)">
                <path d="M70.8,141.7C31.8,141.7 0,109.9 0,70.8C0,31.7 31.8,0 70.8,0C109.8,0 141.7,31.8 141.7,70.9C141.7,110 109.9,141.7 70.8,141.7ZM70.8,8C36.2,8 8,36.2 8,70.8C8,105.4 36.2,133.6 70.8,133.6C105.4,133.6 133.6,105.4 133.6,70.8C133.6,36.2 105.5,8 70.8,8Z" style="fill:rgb(204,204,204);fill-rule:nonzero;"/>
            </g>
            <g transform="matrix(1,0,0,1,52.8683,425.759)">
                <path d="M70.8,141.7C31.8,141.7 0,109.9 0,70.8C0,31.7 31.8,0 70.8,0C109.8,0 141.7,31.8 141.7,70.9C141.7,110 109.9,141.7 70.8,141.7ZM70.8,8C36.2,8 8,36.2 8,70.8C8,105.4 36.2,133.6 70.8,133.6C105.4,133.6 133.6,105.4 133.6,70.8C133.6,36.2 105.5,8 70.8,8Z" style="fill:rgb(204,204,204);fill-rule:nonzero;"/>
            </g>
        </g>
        <g transform="matrix(0.2,0,0,0.2,1087.71,286.826)">
            <path id="XMLID_855_" d="M299.569,156.823L232.237,135.776C230.78,135.32 229.218,135.32 227.761,135.776L160.429,156.823C157.298,157.802 155.167,160.701 155.167,163.981L155.167,240.917C155.167,255.862 163.258,269.697 176.284,277.024L226.322,305.17C227.463,305.812 228.731,306.133 229.999,306.133C231.267,306.133 232.535,305.812 233.676,305.17L283.714,277.024C296.74,269.697 304.831,255.862 304.831,240.917L304.831,163.981C304.832,160.701 302.7,157.802 299.569,156.823ZM289.832,240.917C289.832,250.451 284.67,259.276 276.361,263.951L230,290.029L183.639,263.951C175.33,259.277 170.168,250.451 170.168,240.917L170.168,169.495L230,150.792L289.832,169.495L289.832,240.917Z" style="fill:white;fill-rule:nonzero;"/>
            <path id="XMLID_911_" d="M182.524,175.461C179.394,176.44 177.262,179.339 177.262,182.62L177.262,234.312C177.262,245.241 183.179,255.358 192.704,260.716L226.323,279.627C227.465,280.27 228.733,280.59 230,280.59C231.309,280.59 232.618,280.248 233.786,279.564C236.086,278.219 237.5,275.754 237.5,273.09L237.5,168.479C237.5,166.093 236.365,163.85 234.442,162.436C232.519,161.023 230.04,160.609 227.762,161.32L182.524,175.461ZM222.5,260.266L200.058,247.642C195.249,244.936 192.262,239.829 192.262,234.311L192.262,188.133L222.5,178.681L222.5,260.266Z" style="fill:white;fill-rule:nonzero;"/>
            <path id="XMLID_998_" d="M452.5,319.239L421.304,319.239L421.304,110.043C421.304,92.039 406.657,77.391 388.652,77.391L71.348,77.391C53.344,77.391 38.696,92.039 38.696,110.043L38.696,319.239L7.5,319.239C3.358,319.239 0,322.597 0,326.739L0,348.609C0,367.357 15.252,382.609 34,382.609L426,382.609C444.748,382.609 460,367.357 460,348.609L460,326.739C460,322.597 456.642,319.239 452.5,319.239ZM53.696,110.043C53.696,100.31 61.614,92.391 71.348,92.391L388.653,92.391C398.386,92.391 406.305,100.31 406.305,110.043L406.305,319.239L392.284,319.239L392.284,114.88C392.284,110.738 388.926,107.38 384.784,107.38L75.217,107.38C71.075,107.38 67.717,110.738 67.717,114.88L67.717,319.239L53.696,319.239L53.696,110.043ZM82.717,319.239L82.717,122.38L377.282,122.38L377.282,319.239L82.717,319.239ZM445,348.609C445,359.086 436.477,367.609 426,367.609L34,367.609C23.523,367.609 15,359.086 15,348.609L15,334.239L445,334.239L445,348.609Z" style="fill:white;fill-rule:nonzero;"/>
        </g>
    </g>
</svg>
