<?xml version="1.0" encoding="UTF-8" standalone="no"?>
<!DOCTYPE svg PUBLIC "-//W3C//DTD SVG 1.1//EN" "http://www.w3.org/Graphics/SVG/1.1/DTD/svg11.dtd">
<svg width="100%" height="100%" viewBox="0 0 142 142" version="1.1" xmlns="http://www.w3.org/2000/svg" xmlns:xlink="http://www.w3.org/1999/xlink" xml:space="preserve" xmlns:serif="http://www.serif.com/" style="fill-rule:evenodd;clip-rule:evenodd;stroke-linejoin:round;stroke-miterlimit:2;">
    <g transform="matrix(1,0,0,1,-1113.89,-9.59069)">
        <g transform="matrix(1,0,0,1,32.3325,-289.797)">
            <g transform="matrix(1,0,0,1,1028.69,-126.371)">
                <g transform="matrix(1,0,0,1,52.8183,425.709)">
                    <circle cx="70.9" cy="70.9" r="66.9" style="fill:rgb(183,0,5);"/>
                </g>
                <g transform="matrix(1,0,0,1,52.8683,425.759)">
                    <path d="M70.8,141.7C31.8,141.7 0,109.9 0,70.8C0,31.7 31.8,0 70.8,0C109.8,0 141.7,31.8 141.7,70.9C141.7,110 109.9,141.7 70.8,141.7ZM70.8,8C36.2,8 8,36.2 8,70.8C8,105.4 36.2,133.6 70.8,133.6C105.4,133.6 133.6,105.4 133.6,70.8C133.6,36.2 105.5,8 70.8,8Z" style="fill:rgb(204,204,204);fill-rule:nonzero;"/>
                </g>
                <g transform="matrix(1,0,0,1,52.8683,425.759)">
                    <path d="M70.8,141.7C31.8,141.7 0,109.9 0,70.8C0,31.7 31.8,0 70.8,0C109.8,0 141.7,31.8 141.7,70.9C141.7,110 109.9,141.7 70.8,141.7ZM70.8,8C36.2,8 8,36.2 8,70.8C8,105.4 36.2,133.6 70.8,133.6C105.4,133.6 133.6,105.4 133.6,70.8C133.6,36.2 105.5,8 70.8,8Z" style="fill:rgb(204,204,204);fill-rule:nonzero;"/>
                </g>
            </g>
            <g id="XMLID_475_" transform="matrix(0.173913,0,0,0.173913,1112.4,330.238)">
                <path d="M452.549,71.257L355.322,71.257C345.929,50.183 331.768,29.717 310.382,16.889C307.385,15.092 303.546,15.617 301.142,18.151C300.245,19.097 280.576,39.959 259.81,71.257L7.451,71.257C3.336,71.257 0,74.593 0,78.709L0,436.722C0,440.837 3.336,444.173 7.451,444.173L452.548,444.173C456.664,444.173 459.999,440.837 459.999,436.722L459.999,78.709C460,74.593 456.664,71.257 452.549,71.257ZM367.587,274.52C380.829,257.81 391.024,228.429 376.688,178.355C375.989,175.913 374.095,173.996 371.661,173.268C369.226,172.54 366.591,173.101 364.666,174.757L340.946,195.157C341.533,169.066 338.149,122.262 308.509,104.482C305.513,102.685 301.673,103.21 299.269,105.744C296.63,108.526 234.71,174.58 239.569,236.245C240.245,244.82 241.999,252.758 244.756,259.944C234.933,246.638 228.959,229.694 227.406,209.992C221.592,136.224 290.034,53.211 307.806,33.009C355.056,66.771 358.751,149.585 358.783,150.442C358.88,153.074 360.359,155.46 362.674,156.717C364.988,157.974 367.794,157.916 370.055,156.564L399.254,139.098C420.515,223.401 388.487,260.298 367.587,274.52ZM212.55,211.163C213.841,227.547 217.834,242.319 224.276,255.102L198.748,255.102L198.748,173.244L214.754,173.244C212.339,186.434 211.598,199.087 212.55,211.163ZM233.591,270.005C242.237,281.326 253.34,290.397 266.658,296.786C271.152,298.942 275.817,300.729 280.604,302.167L280.604,342.186L109.728,342.186L109.728,270.005L233.591,270.005ZM328.856,218.923C331.572,220.378 334.9,220.012 337.234,218.005L365.272,193.892C376.546,244.852 357.615,266.919 344.667,275.729C326.061,288.389 302.041,290.814 283.468,281.902C266.477,273.75 256.163,257.12 254.425,235.074C250.787,188.9 292.022,136.818 305.739,120.881C328.034,140.788 327.353,192.116 324.98,211.44C324.602,214.495 326.143,217.469 328.856,218.923ZM109.728,86.16L250.366,86.16C235.006,111.559 224.243,135.679 218.139,158.341L109.728,158.341L109.728,86.16ZM14.903,86.16L94.825,86.16L94.825,158.341L14.903,158.341L14.903,86.16ZM14.903,173.244L183.845,173.244L183.845,255.102L14.903,255.102L14.903,173.244ZM14.903,270.005L94.825,270.005L94.825,342.186L14.903,342.186L14.903,270.005ZM183.845,429.27L14.903,429.27L14.903,357.088L183.845,357.088L183.845,429.27ZM348.337,429.27L198.748,429.27L198.748,357.088L348.337,357.088L348.337,429.27ZM445.097,429.27L363.239,429.27L363.239,357.088L445.097,357.088L445.097,429.27ZM445.097,342.186L295.507,342.186L295.507,305.445C300.632,306.183 305.836,306.559 311.072,306.559C333.86,306.559 357.233,299.615 377.056,286.126C382.754,282.249 389.109,276.99 395.187,270.005L445.097,270.005L445.097,342.186ZM445.098,255.102L405.846,255.102C416.624,236.592 423.984,210.261 420.428,173.244L445.098,173.244L445.098,255.102ZM445.097,158.341L418.481,158.341C416.818,148.161 414.389,137.267 411.047,125.594C410.411,123.369 408.776,121.566 406.623,120.716C404.472,119.866 402.046,120.063 400.059,121.251L372.671,137.633C371.324,125.656 368.228,106.394 361.211,86.161L445.097,86.161L445.097,158.341Z" style="fill:white;fill-rule:nonzero;"/>
            </g>
        </g>
    </g>
</svg>
