<?xml version="1.0" encoding="UTF-8" standalone="no"?>
<!DOCTYPE svg PUBLIC "-//W3C//DTD SVG 1.1//EN" "http://www.w3.org/Graphics/SVG/1.1/DTD/svg11.dtd">
<svg width="100%" height="100%" viewBox="0 0 142 142" version="1.1" xmlns="http://www.w3.org/2000/svg" xmlns:xlink="http://www.w3.org/1999/xlink" xml:space="preserve" xmlns:serif="http://www.serif.com/" style="fill-rule:evenodd;clip-rule:evenodd;stroke-linejoin:round;stroke-miterlimit:2;">
    <g transform="matrix(1,0,0,1,-952.824,-355.072)">
        <g transform="matrix(1,0,0,1,899.956,-70.6868)">
            <g transform="matrix(1,0,0,1,52.8183,425.709)">
                <circle cx="70.9" cy="70.9" r="66.9" style="fill:rgb(183,0,5);"/>
            </g>
            <g transform="matrix(1,0,0,1,52.8683,425.759)">
                <path d="M70.8,141.7C31.8,141.7 0,109.9 0,70.8C0,31.7 31.8,0 70.8,0C109.8,0 141.7,31.8 141.7,70.9C141.7,110 109.9,141.7 70.8,141.7ZM70.8,8C36.2,8 8,36.2 8,70.8C8,105.4 36.2,133.6 70.8,133.6C105.4,133.6 133.6,105.4 133.6,70.8C133.6,36.2 105.5,8 70.8,8Z" style="fill:rgb(204,204,204);fill-rule:nonzero;"/>
            </g>
            <g transform="matrix(1,0,0,1,52.8683,425.759)">
                <path d="M70.8,141.7C31.8,141.7 0,109.9 0,70.8C0,31.7 31.8,0 70.8,0C109.8,0 141.7,31.8 141.7,70.9C141.7,110 109.9,141.7 70.8,141.7ZM70.8,8C36.2,8 8,36.2 8,70.8C8,105.4 36.2,133.6 70.8,133.6C105.4,133.6 133.6,105.4 133.6,70.8C133.6,36.2 105.5,8 70.8,8Z" style="fill:rgb(204,204,204);fill-rule:nonzero;"/>
            </g>
        </g>
        <g transform="matrix(0.668393,0,0,0.668393,535.474,61.9837)">
            <g transform="matrix(0.280524,0,0,0.280524,658.596,472.684)">
                <path d="M415.303,193.241L389.273,193.241L389.273,133.293C389.273,102.943 378.777,73.222 359.718,49.602C340.66,25.983 313.827,9.443 284.163,3.03C265.475,-1.01 246.525,-1.01 227.836,3.03C198.173,9.443 171.34,25.983 152.281,49.602C133.221,73.221 122.726,102.944 122.726,133.293L122.726,193.242L96.697,193.242C91.065,193.242 86.498,197.809 86.498,203.441L86.498,461.31C86.498,465.975 89.664,470.045 94.184,471.194L253.487,511.685C254.312,511.895 255.157,512 256,512C256.843,512 257.688,511.895 258.513,511.685L417.816,471.194C422.337,470.046 425.502,465.975 425.502,461.31L425.502,203.44C425.502,197.807 420.935,193.241 415.303,193.241ZM143.125,133.292C143.125,80.517 180.564,34.119 232.147,22.966C247.975,19.544 264.024,19.544 279.852,22.966C331.435,34.118 368.874,80.517 368.874,133.292L368.874,193.24L345.794,193.24L345.794,134.595C345.794,114.115 338.703,94.066 325.827,78.141C312.951,62.216 294.831,51.083 274.806,46.793C262.327,44.12 249.672,44.12 237.191,46.793C217.166,51.083 199.046,62.216 186.17,78.141C173.295,94.066 166.204,114.115 166.204,134.595L166.204,193.24L143.124,193.24L143.124,133.292L143.125,133.292ZM325.398,134.596L325.398,193.241L186.602,193.241L186.602,134.596C186.602,102.085 209.675,73.547 241.465,66.738C251.108,64.673 260.891,64.673 270.534,66.738C302.325,73.547 325.398,102.086 325.398,134.596ZM405.104,453.378L256,491.277L106.896,453.378L106.896,213.639L405.105,213.639L405.105,453.378L405.104,453.378Z" style="fill:white;fill-rule:nonzero;"/>
            </g>
            <g transform="matrix(1,0,0,1,-9.41799,227.976)">
                <g transform="matrix(36,0,0,36,706.799,352.8)">
                    <path d="M0.32,0.009C0.269,0.009 0.22,0.002 0.175,-0.012C0.129,-0.025 0.092,-0.044 0.063,-0.067C0.048,-0.078 0.04,-0.094 0.04,-0.115C0.04,-0.129 0.044,-0.141 0.053,-0.152C0.061,-0.162 0.071,-0.167 0.082,-0.167C0.094,-0.167 0.108,-0.162 0.123,-0.153C0.152,-0.132 0.182,-0.117 0.213,-0.108C0.244,-0.099 0.279,-0.094 0.317,-0.094C0.366,-0.094 0.403,-0.102 0.429,-0.12C0.455,-0.136 0.468,-0.161 0.468,-0.194C0.468,-0.219 0.456,-0.239 0.432,-0.253C0.407,-0.266 0.367,-0.279 0.31,-0.292C0.251,-0.305 0.204,-0.319 0.167,-0.336C0.13,-0.353 0.103,-0.374 0.084,-0.4C0.065,-0.426 0.056,-0.459 0.056,-0.499C0.056,-0.54 0.068,-0.577 0.091,-0.61C0.114,-0.643 0.147,-0.668 0.189,-0.687C0.23,-0.705 0.277,-0.714 0.329,-0.714C0.424,-0.714 0.502,-0.689 0.562,-0.638C0.571,-0.631 0.577,-0.624 0.581,-0.617C0.584,-0.61 0.586,-0.601 0.586,-0.59C0.586,-0.576 0.582,-0.564 0.574,-0.554C0.565,-0.543 0.555,-0.538 0.544,-0.538C0.537,-0.538 0.531,-0.539 0.526,-0.541C0.52,-0.543 0.512,-0.547 0.503,-0.552C0.476,-0.572 0.449,-0.587 0.424,-0.597C0.398,-0.606 0.366,-0.611 0.329,-0.611C0.284,-0.611 0.248,-0.602 0.222,-0.584C0.195,-0.565 0.182,-0.54 0.182,-0.507C0.182,-0.48 0.194,-0.459 0.217,-0.444C0.24,-0.429 0.28,-0.416 0.336,-0.403C0.395,-0.39 0.444,-0.375 0.481,-0.359C0.518,-0.342 0.546,-0.321 0.566,-0.296C0.585,-0.271 0.595,-0.239 0.595,-0.201C0.595,-0.16 0.584,-0.123 0.561,-0.092C0.538,-0.06 0.505,-0.035 0.464,-0.018C0.422,0 0.374,0.009 0.32,0.009Z" style="fill:white;fill-rule:nonzero;"/>
                </g>
                <g transform="matrix(36,0,0,36,729.767,352.8)">
                    <path d="M0.32,0.009C0.269,0.009 0.22,0.002 0.175,-0.012C0.129,-0.025 0.092,-0.044 0.063,-0.067C0.048,-0.078 0.04,-0.094 0.04,-0.115C0.04,-0.129 0.044,-0.141 0.053,-0.152C0.061,-0.162 0.071,-0.167 0.082,-0.167C0.094,-0.167 0.108,-0.162 0.123,-0.153C0.152,-0.132 0.182,-0.117 0.213,-0.108C0.244,-0.099 0.279,-0.094 0.317,-0.094C0.366,-0.094 0.403,-0.102 0.429,-0.12C0.455,-0.136 0.468,-0.161 0.468,-0.194C0.468,-0.219 0.456,-0.239 0.432,-0.253C0.407,-0.266 0.367,-0.279 0.31,-0.292C0.251,-0.305 0.204,-0.319 0.167,-0.336C0.13,-0.353 0.103,-0.374 0.084,-0.4C0.065,-0.426 0.056,-0.459 0.056,-0.499C0.056,-0.54 0.068,-0.577 0.091,-0.61C0.114,-0.643 0.147,-0.668 0.189,-0.687C0.23,-0.705 0.277,-0.714 0.329,-0.714C0.424,-0.714 0.502,-0.689 0.562,-0.638C0.571,-0.631 0.577,-0.624 0.581,-0.617C0.584,-0.61 0.586,-0.601 0.586,-0.59C0.586,-0.576 0.582,-0.564 0.574,-0.554C0.565,-0.543 0.555,-0.538 0.544,-0.538C0.537,-0.538 0.531,-0.539 0.526,-0.541C0.52,-0.543 0.512,-0.547 0.503,-0.552C0.476,-0.572 0.449,-0.587 0.424,-0.597C0.398,-0.606 0.366,-0.611 0.329,-0.611C0.284,-0.611 0.248,-0.602 0.222,-0.584C0.195,-0.565 0.182,-0.54 0.182,-0.507C0.182,-0.48 0.194,-0.459 0.217,-0.444C0.24,-0.429 0.28,-0.416 0.336,-0.403C0.395,-0.39 0.444,-0.375 0.481,-0.359C0.518,-0.342 0.546,-0.321 0.566,-0.296C0.585,-0.271 0.595,-0.239 0.595,-0.201C0.595,-0.16 0.584,-0.123 0.561,-0.092C0.538,-0.06 0.505,-0.035 0.464,-0.018C0.422,0 0.374,0.009 0.32,0.009Z" style="fill:white;fill-rule:nonzero;"/>
                </g>
                <g transform="matrix(36,0,0,36,752.735,352.8)">
                    <path d="M0.137,0C0.118,0 0.103,-0.005 0.092,-0.016C0.081,-0.027 0.076,-0.041 0.076,-0.06L0.076,-0.646C0.076,-0.665 0.082,-0.681 0.094,-0.693C0.105,-0.704 0.121,-0.71 0.14,-0.71C0.16,-0.71 0.176,-0.704 0.188,-0.693C0.199,-0.681 0.205,-0.665 0.205,-0.646L0.205,-0.106L0.486,-0.106C0.526,-0.106 0.546,-0.088 0.546,-0.053C0.546,-0.018 0.526,0 0.486,0L0.137,0Z" style="fill:white;fill-rule:nonzero;"/>
                </g>
            </g>
        </g>
    </g>
</svg>
